<svg width="59" height="71" viewBox="0 0 59 71" fill="none" xmlns="http://www.w3.org/2000/svg">
<path d="M2 0V48H58V0H2ZM52 18H48V12.828L28 32.828L24 28.828L16 36.828V42H8V34H13.172L24 23.172L28 27.172L45.172 10H40V6H52V18Z" fill="#FF7601"/>
<path d="M3.69 66C3.53 66 3.39667 65.9433 3.29 65.83L1.29 63.83C1.17667 63.7233 1.12 63.59 1.12 63.43V55.23C1.12 55.0767 1.17667 54.9433 1.29 54.83L3.29 52.83C3.39667 52.7233 3.53 52.67 3.69 52.67H9.61C9.77667 52.67 9.86 52.7533 9.86 52.92V55.22C9.86 55.3867 9.77667 55.47 9.61 55.47H4.88C4.78667 55.47 4.70667 55.5033 4.64 55.57C4.57333 55.6367 4.54 55.7167 4.54 55.81V62.84C4.54 62.9333 4.57333 63.0133 4.64 63.08C4.70667 63.1467 4.78667 63.18 4.88 63.18H6.96V60.64L5.72 60.63C5.55333 60.63 5.47 60.5467 5.47 60.38V58.2C5.47 58.0333 5.55333 57.95 5.72 57.95H9.84C10.0067 57.95 10.09 58.0333 10.09 58.2V63.43C10.09 63.59 10.0333 63.7233 9.92 63.83L7.92 65.83C7.81333 65.9433 7.68 66 7.52 66H3.69ZM12.3075 66C12.1408 66 12.0575 65.9167 12.0575 65.75V52.92C12.0575 52.7533 12.1408 52.67 12.3075 52.67H17.7975C17.9575 52.67 18.0908 52.7133 18.1975 52.8L20.4975 55.08C20.5708 55.1467 20.6142 55.2033 20.6275 55.25C20.6475 55.2967 20.6575 55.3733 20.6575 55.48V58.22C20.6575 58.3067 20.6208 58.3867 20.5475 58.46L19.4275 59.56L18.5675 60.3L19.6175 61.7L20.7575 64.12C20.7842 64.18 20.8042 64.24 20.8175 64.3C20.8375 64.3533 20.8475 64.42 20.8475 64.5V65.75C20.8475 65.9167 20.7642 66 20.5975 66H17.9075C17.7608 66 17.6608 65.9333 17.6075 65.8L16.0175 61.24H15.3275V65.75C15.3275 65.9167 15.2442 66 15.0775 66H12.3075ZM16.3575 58.61C16.8842 58.61 17.2442 58.5 17.4375 58.28C17.6375 58.0533 17.7375 57.6433 17.7375 57.05C17.7375 56.4433 17.6375 56.03 17.4375 55.81C17.2442 55.5833 16.8842 55.47 16.3575 55.47C15.8442 55.47 15.4842 55.5833 15.2775 55.81C15.0775 56.03 14.9775 56.4433 14.9775 57.05C14.9775 57.6433 15.0775 58.0533 15.2775 58.28C15.4842 58.5 15.8442 58.61 16.3575 58.61ZM22.56 66C22.3933 66 22.31 65.9167 22.31 65.75V56.48C22.31 56.3933 22.3433 56.2933 22.41 56.18L24.78 52.82C24.8533 52.72 24.96 52.67 25.1 52.67H28.43C28.5767 52.67 28.6833 52.72 28.75 52.82L31.13 56.18C31.1967 56.2733 31.23 56.3733 31.23 56.48V65.75C31.23 65.9167 31.1467 66 30.98 66H28.07C27.9033 66 27.82 65.9167 27.82 65.75V61.55H25.73V65.75C25.73 65.9167 25.6467 66 25.48 66H22.56ZM26.77 59.27C27.35 59.27 27.7467 59.14 27.96 58.88C28.1733 58.6133 28.28 58.1267 28.28 57.42C28.28 56.7067 28.1733 56.22 27.96 55.96C27.7467 55.7 27.35 55.57 26.77 55.57C26.1967 55.57 25.8033 55.7 25.59 55.96C25.3767 56.22 25.27 56.7067 25.27 57.42C25.27 58.1267 25.3767 58.6133 25.59 58.88C25.8033 59.14 26.1967 59.27 26.77 59.27ZM33.6747 66C33.508 66 33.4247 65.9167 33.4247 65.75V52.92C33.4247 52.7533 33.508 52.67 33.6747 52.67H40.5347C40.7014 52.67 40.7847 52.7533 40.7847 52.92V55.22C40.7847 55.3867 40.7014 55.47 40.5347 55.47H36.8447V58.55H40.0847C40.2514 58.55 40.3347 58.6333 40.3347 58.8V61.06C40.3347 61.2267 40.2514 61.31 40.0847 61.31H36.8447V65.75C36.8447 65.9167 36.7614 66 36.5947 66H33.6747ZM42.5614 66C42.3947 66 42.3114 65.9167 42.3114 65.75V52.92C42.3114 52.7533 42.3947 52.67 42.5614 52.67H45.4814C45.6481 52.67 45.7314 52.7533 45.7314 52.92V65.75C45.7314 65.9167 45.6481 66 45.4814 66H42.5614ZM48.2359 66C48.0693 66 47.9859 65.9167 47.9859 65.75V61.02C47.9859 60.96 47.9893 60.9067 47.9959 60.86C48.0093 60.8133 48.0393 60.7667 48.0859 60.72L49.3859 59.42V59.07L48.0559 57.74C48.0093 57.6867 47.9793 57.6367 47.9659 57.59C47.9593 57.5433 47.9559 57.4933 47.9559 57.44V52.92C47.9559 52.7533 48.0393 52.67 48.2059 52.67H51.1259C51.2926 52.67 51.3759 52.7533 51.3759 52.92V57.82H53.4659V52.92C53.4659 52.7533 53.5493 52.67 53.7159 52.67H56.6359C56.8026 52.67 56.8859 52.7533 56.8859 52.92V57.44C56.8859 57.4933 56.8826 57.5433 56.8759 57.59C56.8693 57.6367 56.8393 57.6867 56.7859 57.74L55.4559 59.07V59.42L56.7559 60.72C56.8093 60.7667 56.8393 60.8133 56.8459 60.86C56.8526 60.9067 56.8559 60.96 56.8559 61.02V65.75C56.8559 65.9167 56.7726 66 56.6059 66H53.6759C53.5093 66 53.4259 65.9167 53.4259 65.75V60.62H51.4159V65.75C51.4159 65.9167 51.3326 66 51.1659 66H48.2359Z" fill="#FF7601"/>
</svg>
