<svg width="216" height="63" viewBox="0 0 216 63" fill="none" xmlns="http://www.w3.org/2000/svg">
<path d="M0 7V55H56V7H0ZM50 25H46V19.828L26 39.828L22 35.828L14 43.828V49H6V41H11.172L22 30.172L26 34.172L43.172 17H38V13H50V25Z" fill="#FF7601"/>
<path d="M78.425 50C78.025 50 77.6917 49.8583 77.425 49.575L72.425 44.575C72.1417 44.3083 72 43.975 72 43.575V23.075C72 22.6917 72.1417 22.3583 72.425 22.075L77.425 17.075C77.6917 16.8083 78.025 16.675 78.425 16.675H93.2C93.6167 16.675 93.825 16.8833 93.825 17.3V22.7C93.825 23.1167 93.6167 23.325 93.2 23.325H81.175C80.9417 23.325 80.7417 23.4083 80.575 23.575C80.4083 23.7417 80.325 23.9417 80.325 24.175V42.45C80.325 42.6833 80.4083 42.8833 80.575 43.05C80.7417 43.2167 80.9417 43.3 81.175 43.3H86.575V36.625H83.375C82.9583 36.625 82.75 36.4167 82.75 36V30.625C82.75 30.2083 82.9583 30 83.375 30H93.625C94.0417 30 94.25 30.2083 94.25 30.625V43.575C94.25 43.975 94.1083 44.3083 93.825 44.575L88.825 49.575C88.5583 49.8583 88.225 50 87.825 50H78.425ZM100.115 50C99.6986 50 99.4902 49.7917 99.4902 49.375V17.3C99.4902 16.8833 99.6986 16.675 100.115 16.675H113.665C114.065 16.675 114.399 16.7833 114.665 17L120.415 22.7C120.599 22.8667 120.707 23.0083 120.74 23.125C120.79 23.2417 120.815 23.4333 120.815 23.7V30.55C120.815 30.7667 120.732 30.9583 120.565 31.125L117.815 33.8L115.49 35.8L118.24 39.45L121.065 45.5C121.132 45.65 121.182 45.8 121.215 45.95C121.265 46.0833 121.29 46.25 121.29 46.45V49.375C121.29 49.7917 121.082 50 120.665 50H114.065C113.699 50 113.449 49.8333 113.315 49.5L109.29 37.8H107.415V49.375C107.415 49.7917 107.207 50 106.79 50H100.115ZM110.165 31.675C111.549 31.675 112.49 31.3917 112.99 30.825C113.49 30.2417 113.74 29.1583 113.74 27.575C113.74 25.975 113.49 24.8917 112.99 24.325C112.49 23.7417 111.549 23.45 110.165 23.45C108.799 23.45 107.857 23.7417 107.34 24.325C106.824 24.8917 106.565 25.975 106.565 27.575C106.565 29.1583 106.824 30.2417 107.34 30.825C107.857 31.3917 108.799 31.675 110.165 31.675ZM125.721 50C125.305 50 125.096 49.7917 125.096 49.375V26.2C125.096 25.9833 125.18 25.7333 125.346 25.45L131.271 17.05C131.455 16.8 131.721 16.675 132.071 16.675H140.346C140.713 16.675 140.98 16.8 141.146 17.05L147.096 25.45C147.263 25.6833 147.346 25.9333 147.346 26.2V49.375C147.346 49.7917 147.138 50 146.721 50H139.646C139.23 50 139.021 49.7917 139.021 49.375V38.75H133.446V49.375C133.446 49.7917 133.238 50 132.821 50H125.721ZM136.221 33.375C137.755 33.375 138.788 33.0417 139.321 32.375C139.871 31.6917 140.146 30.4 140.146 28.5C140.146 26.6 139.871 25.3167 139.321 24.65C138.788 23.9667 137.755 23.625 136.221 23.625C134.705 23.625 133.671 23.9667 133.121 24.65C132.588 25.3167 132.321 26.6 132.321 28.5C132.321 30.4 132.588 31.6917 133.121 32.375C133.671 33.0417 134.705 33.375 136.221 33.375ZM153.826 50C153.41 50 153.201 49.7917 153.201 49.375V17.3C153.201 16.8833 153.41 16.675 153.826 16.675H170.951C171.368 16.675 171.576 16.8833 171.576 17.3V22.7C171.576 23.1167 171.368 23.325 170.951 23.325H161.526V31.675H169.701C170.118 31.675 170.326 31.8833 170.326 32.3V37.7C170.326 38.1167 170.118 38.325 169.701 38.325H161.526V49.375C161.526 49.7917 161.318 50 160.901 50H153.826ZM176.189 50C175.773 50 175.564 49.7917 175.564 49.375V17.3C175.564 16.8833 175.773 16.675 176.189 16.675H183.264C183.681 16.675 183.889 16.8833 183.889 17.3V49.375C183.889 49.7917 183.681 50 183.264 50H176.189ZM190.571 50C190.154 50 189.946 49.7917 189.946 49.375V37.375C189.946 37.225 189.954 37.0917 189.971 36.975C190.004 36.8583 190.079 36.7417 190.196 36.625L193.446 33.375V32.5L190.121 29.175C190.004 29.0417 189.929 28.9167 189.896 28.8C189.879 28.6833 189.871 28.5583 189.871 28.425V17.3C189.871 16.8833 190.079 16.675 190.496 16.675H197.571C197.988 16.675 198.196 16.8833 198.196 17.3V29.55H203.796V17.3C203.796 16.8833 204.004 16.675 204.421 16.675H211.496C211.913 16.675 212.121 16.8833 212.121 17.3V28.425C212.121 28.5583 212.113 28.6833 212.096 28.8C212.079 28.9167 212.004 29.0417 211.871 29.175L208.546 32.5V33.375L211.796 36.625C211.929 36.7417 212.004 36.8583 212.021 36.975C212.038 37.0917 212.046 37.225 212.046 37.375V49.375C212.046 49.7917 211.838 50 211.421 50H204.321C203.904 50 203.696 49.7917 203.696 49.375V36.2H198.296V49.375C198.296 49.7917 198.088 50 197.671 50H190.571Z" fill="#FF7601"/>
</svg>
